<svg width="812" height="592" viewBox="0 0 812 592" fill="none" xmlns="http://www.w3.org/2000/svg">
<g filter="url(#filter0_i_113_108)">
<path fill-rule="evenodd" clip-rule="evenodd" d="M581.022 453.59C668.062 356.929 660.254 208.012 563.594 120.976C466.929 33.9401 318.012 41.7445 230.976 138.408C143.94 235.071 151.744 383.988 248.408 471.024C345.071 558.058 493.988 550.255 581.022 453.59ZM596.244 467.297C690.846 362.228 682.367 200.361 577.295 105.757C472.227 11.1522 310.361 19.6355 215.757 124.704C121.152 229.772 129.635 391.639 234.704 486.246C339.772 580.847 501.639 572.363 596.244 467.297Z" fill="#ECEDE7"/>
<path d="M213.661 265.4C217.682 260.935 222.787 256.291 228.976 251.469C235.038 246.533 239.632 243.739 242.759 243.089C243.013 247.938 243.56 251.434 244.402 253.578C245.129 255.85 246.386 257.789 248.171 259.398C254.04 264.681 269.051 268.149 293.205 269.8C317.244 271.579 339.881 267.476 361.115 257.489L353.213 162.364C352.144 146.618 352.3 135.67 353.679 129.52C354.931 123.255 357.51 117.954 361.415 113.617C364.746 109.917 371.676 106.454 382.203 103.229C392.616 100.13 402.429 98.3396 411.641 97.8568C420.739 97.5015 426.691 98.5874 429.498 101.115C432.177 103.527 433.076 106.761 432.194 110.819C430.598 115.157 429.315 121.97 428.343 131.259C427.243 140.433 426.948 149.869 427.456 159.567L430.915 354.295C443.47 354.974 453.404 354.331 460.716 352.368C467.9 350.29 474.593 345.806 480.796 338.917C486.655 332.411 490.848 324.291 493.377 314.556C495.778 304.705 496.859 291.703 496.62 275.549C496.496 259.268 497.468 246.515 499.537 237.29C501.607 228.065 505.168 220.646 510.223 215.033C516.08 208.527 523.278 204.381 531.815 202.597L608.742 271.861L594.267 287.935L573.793 269.499C568.56 264.79 563.246 265.433 557.849 271.429C554.977 274.618 552.972 279.282 551.836 285.419C550.571 291.441 549.108 298.325 547.448 306.069C545.66 313.699 543.049 321.859 539.614 330.547C536.052 339.121 530.538 347.554 523.072 355.846C513.883 366.052 502.57 372.844 489.133 376.222C475.696 379.601 459.434 380.088 440.346 377.685L431.178 376.707L433.636 423.619C434.043 431.377 433.831 437.769 433 442.798C432.17 447.826 430.089 452.188 426.758 455.889C422.738 460.354 416.242 463.974 407.272 466.754C398.058 469.544 388.597 471.075 378.886 471.342C369.049 471.49 362.854 470.42 360.303 468.121C358.006 466.053 357.05 462.883 357.433 458.608C359.03 449.653 360.283 438.768 361.192 425.957C361.973 413.031 362.276 401.407 362.1 391.085L360.955 289.223C333.188 295.175 305.634 294.736 278.291 287.903C284.81 294.004 287.392 301.526 286.038 310.47C284.555 319.3 279.047 329.009 269.513 339.597C263.655 346.104 257.013 350.402 249.586 352.493C242.032 354.469 236.405 353.792 232.706 350.461C231.94 349.771 231.838 348.987 232.399 348.106C232.846 347.353 234.046 345.893 235.999 343.724C241.283 337.856 240.034 331.418 232.252 324.411L213.938 308.961C207.049 302.759 203.644 295.766 203.723 287.982C203.801 280.199 207.114 272.671 213.661 265.4Z" fill="#ECEDE7"/>
</g>
<defs>
<filter id="filter0_i_113_108" x="150" y="40" width="512" height="516" filterUnits="userSpaceOnUse" color-interpolation-filters="sRGB">
<feFlood flood-opacity="0" result="BackgroundImageFix"/>
<feBlend mode="normal" in="SourceGraphic" in2="BackgroundImageFix" result="shape"/>
<feColorMatrix in="SourceAlpha" type="matrix" values="0 0 0 0 0 0 0 0 0 0 0 0 0 0 0 0 0 0 127 0" result="hardAlpha"/>
<feOffset dy="4"/>
<feGaussianBlur stdDeviation="2"/>
<feComposite in2="hardAlpha" operator="arithmetic" k2="-1" k3="1"/>
<feColorMatrix type="matrix" values="0 0 0 0 0.0658333 0 0 0 0 0.9875 0 0 0 0 0.888957 0 0 0 0.49 0"/>
<feBlend mode="normal" in2="shape" result="effect1_innerShadow_113_108"/>
</filter>
</defs>
</svg>
